<svg width="20" height="20" viewBox="0 0 20 20" fill="none" xmlns="http://www.w3.org/2000/svg">
<g clip-path="url(#clip0_1032_243)">
<path d="M19.694 8.5217L10.5274 1.0217C10.3785 0.899989 10.1922 0.833496 9.99988 0.833496C9.8076 0.833496 9.62123 0.899989 9.47238 1.0217L0.305712 8.5217C0.138484 8.6628 0.0334566 8.86401 0.0133085 9.08188C-0.00683955 9.29975 0.059508 9.51681 0.198025 9.68618C0.336543 9.85555 0.536116 9.96365 0.753653 9.98713C0.97119 10.0106 1.18924 9.94761 1.36071 9.8117L2.49988 8.88004V18.3334C2.49988 18.5544 2.58768 18.7663 2.74396 18.9226C2.90024 19.0789 3.1122 19.1667 3.33321 19.1667H8.33321V14.1667H11.6665V19.1667H16.6665C16.8876 19.1667 17.0995 19.0789 17.2558 18.9226C17.4121 18.7663 17.4999 18.5544 17.4999 18.3334V8.88004L18.639 9.8117C18.7235 9.88297 18.8213 9.93672 18.9267 9.96983C19.0322 10.0029 19.1431 10.0148 19.2532 10.0046C19.3632 9.99441 19.4701 9.96245 19.5677 9.91056C19.6653 9.85867 19.7516 9.7879 19.8215 9.70235C19.8915 9.61681 19.9437 9.5182 19.9752 9.41227C20.0067 9.30635 20.0168 9.19521 20.005 9.08534C19.9931 8.97547 19.9595 8.86906 19.9061 8.77229C19.8527 8.67553 19.7807 8.59034 19.694 8.5217Z" fill="white"/>
</g>
<defs>
<clipPath id="clip0_1032_243">
<rect width="20" height="20" fill="white"/>
</clipPath>
</defs>
</svg>
