<svg width="40" height="40" viewBox="0 0 40 40" fill="none" xmlns="http://www.w3.org/2000/svg">
<rect width="40" height="40" rx="10" fill="#0890FE"/>
<g clip-path="url(#clip0_1046_22657)">
<path d="M19.1668 21.6667C18.9458 21.6667 18.7339 21.5789 18.5776 21.4226C18.4213 21.2663 18.3335 21.0543 18.3335 20.8333V11.6667C18.3335 11.2246 18.5091 10.8007 18.8217 10.4882C19.1342 10.1756 19.5581 10 20.0002 10H28.3335C28.7755 10 29.1994 10.1756 29.512 10.4882C29.8246 10.8007 30.0002 11.2246 30.0002 11.6667V17.5C30.0002 17.942 29.8246 18.366 29.512 18.6785C29.1994 18.9911 28.7755 19.1667 28.3335 19.1667H22.7777L19.6668 21.5C19.5226 21.6082 19.3471 21.6667 19.1668 21.6667Z" fill="white"/>
<path d="M23.3334 20.8332V26.6665C23.3334 26.8875 23.2456 27.0995 23.0893 27.2558C22.9331 27.412 22.7211 27.4998 22.5001 27.4998H14.1667C13.9457 27.4998 13.7338 27.412 13.5775 27.2558C13.4212 27.0995 13.3334 26.8875 13.3334 26.6665V14.9998C13.3334 14.7788 13.4212 14.5669 13.5775 14.4106C13.7338 14.2543 13.9457 14.1665 14.1667 14.1665H16.6667V11.6665H14.1667C13.5037 11.6665 12.8678 11.9299 12.399 12.3987C11.9301 12.8676 11.6667 13.5035 11.6667 14.1665V27.4998C11.6667 28.1629 11.9301 28.7988 12.399 29.2676C12.8678 29.7364 13.5037 29.9998 14.1667 29.9998H22.5001C23.1631 29.9998 23.799 29.7364 24.2678 29.2676C24.7367 28.7988 25.0001 28.1629 25.0001 27.4998V20.8332H23.3334Z" fill="white"/>
</g>
<defs>
<clipPath id="clip0_1046_22657">
<rect width="20" height="20" fill="white" transform="translate(10 10)"/>
</clipPath>
</defs>
</svg>
