<svg width="40" height="40" viewBox="0 0 40 40" fill="none" xmlns="http://www.w3.org/2000/svg">
<rect width="40" height="40" rx="10" fill="#3629B7"/>
<g clip-path="url(#clip0_1046_4404)">
<path d="M29.1667 27.5002H28.3333V20.8335H26.6667V27.5002H23.3333V20.8335H21.6667V27.5002H18.3333V20.8335H16.6667V27.5002H13.3333V20.8335H11.6667V27.5002H10.8333C10.3733 27.5002 10 27.8727 10 28.3335C10 28.7943 10.3733 29.1668 10.8333 29.1668H29.1667C29.6267 29.1668 30 28.7943 30 28.3335C30 27.8727 29.6267 27.5002 29.1667 27.5002Z" fill="white"/>
<path d="M29.5658 15.1017L20.3992 10.1017C20.15 9.96674 19.85 9.96674 19.6008 10.1017L10.4342 15.1017C10.1667 15.2476 10 15.5284 10 15.8334V18.3334C10 18.7942 10.3733 19.1667 10.8333 19.1667H29.1667C29.6267 19.1667 30 18.7942 30 18.3334V15.8334C30 15.5284 29.8333 15.2476 29.5658 15.1017ZM20 16.6667C19.0792 16.6667 18.3333 15.9209 18.3333 15.0001C18.3333 14.0792 19.0792 13.3334 20 13.3334C20.9208 13.3334 21.6667 14.0792 21.6667 15.0001C21.6667 15.9209 20.9208 16.6667 20 16.6667Z" fill="white"/>
</g>
<defs>
<clipPath id="clip0_1046_4404">
<rect width="20" height="20" fill="white" transform="translate(10 10)"/>
</clipPath>
</defs>
</svg>
