<svg width="20" height="20" viewBox="0 0 20 20" fill="none" xmlns="http://www.w3.org/2000/svg">
<g clip-path="url(#clip0_1032_4556)">
<path d="M11.1667 12.1665C10.8241 12.401 10.4147 12.518 10 12.4998C9.58527 12.518 9.17586 12.401 8.83333 12.1665L0 7.4165V15.8332C0 16.4962 0.263392 17.1321 0.732233 17.6009C1.20107 18.0698 1.83696 18.3332 2.5 18.3332H17.5C18.163 18.3332 18.7989 18.0698 19.2678 17.6009C19.7366 17.1321 20 16.4962 20 15.8332V7.4165L11.1667 12.1665Z" fill="white"/>
<path d="M17.5 1.6665H2.50001C1.83697 1.6665 1.20109 1.9299 0.732245 2.39874C0.263404 2.86758 1.2287e-05 3.50346 1.2287e-05 4.1665V4.99984C-0.000783975 5.15011 0.0371338 5.29805 0.110112 5.42941C0.183091 5.56077 0.288671 5.67113 0.416679 5.74984L9.58335 10.7498C9.7113 10.8172 9.85599 10.8461 10 10.8332C10.144 10.8461 10.2887 10.8172 10.4167 10.7498L19.5833 5.74984C19.7114 5.67113 19.8169 5.56077 19.8899 5.42941C19.9629 5.29805 20.0008 5.15011 20 4.99984V4.1665C20 3.50346 19.7366 2.86758 19.2678 2.39874C18.7989 1.9299 18.1631 1.6665 17.5 1.6665Z" fill="white"/>
</g>
<defs>
<clipPath id="clip0_1032_4556">
<rect width="20" height="20" fill="white"/>
</clipPath>
</defs>
</svg>
