<svg width="40" height="40" viewBox="0 0 40 40" fill="none" xmlns="http://www.w3.org/2000/svg">
<rect width="40" height="40" rx="10" fill="#FFAF2A"/>
<path d="M26.804 15.0566C26.8028 15.0649 26.8025 15.0668 26.8003 15.0815C26.8003 15.0815 26.8021 15.0695 26.804 15.0566Z" fill="white"/>
<path d="M26.804 15.0564C26.8097 15.0182 26.8073 15.0337 26.804 15.0564V15.0564Z" fill="white"/>
<path d="M25.9572 11.5081C25.0311 10.4525 23.3571 10 21.2155 10H15.0001C14.562 10 14.1896 10.3187 14.1211 10.7507L11.5331 27.1642C11.4817 27.4878 11.7323 27.781 12.0603 27.781H15.8974L16.8612 21.6685L16.8313 21.8599C16.8999 21.4279 17.2694 21.1092 17.707 21.1092H19.5304C23.1125 21.1092 25.9174 19.6542 26.7367 15.4453C26.761 15.3209 26.8003 15.0813 26.8003 15.0813C27.0327 13.5239 26.7987 12.4668 25.9572 11.5081Z" fill="white"/>
<path d="M27.7714 15.8784C26.8805 20.0222 24.0387 22.2155 19.5304 22.2155H17.895L16.6755 30.0001H19.3279C19.7108 30.0001 20.0366 29.7212 20.0964 29.3434L20.1279 29.1785L20.7375 25.3148L20.7768 25.1013C20.8366 24.7234 21.1624 24.4446 21.5452 24.4446H22.0293C25.1627 24.4446 27.6163 23.1717 28.3333 19.49C28.6206 18.013 28.4829 16.7738 27.7714 15.8784Z" fill="white"/>
</svg>
