<svg width="20" height="20" viewBox="0 0 20 20" fill="none" xmlns="http://www.w3.org/2000/svg">
<g clip-path="url(#clip0_1032_18083)">
<path d="M8.33325 15.8333C6.8499 15.8333 5.39985 15.3935 4.16648 14.5694C2.93311 13.7453 1.97182 12.5739 1.40416 11.2035C0.836502 9.83303 0.687977 8.32503 0.977366 6.87017C1.26675 5.41531 1.98106 4.07894 3.02995 3.03005C4.07885 1.98115 5.41522 1.26685 6.87008 0.977457C8.32494 0.688068 9.83294 0.836593 11.2034 1.40425C12.5738 1.97191 13.7452 2.9332 14.5693 4.16657C15.3934 5.39994 15.8333 6.84999 15.8333 8.33335C15.8308 10.3217 15.0399 12.228 13.6339 13.634C12.2279 15.04 10.3216 15.8309 8.33325 15.8333ZM8.33325 2.50001C7.17953 2.50001 6.05172 2.84213 5.09243 3.48311C4.13314 4.12408 3.38547 5.03512 2.94396 6.10103C2.50245 7.16693 2.38693 8.33982 2.61201 9.47137C2.83709 10.6029 3.39266 11.6423 4.20847 12.4581C5.02427 13.2739 6.06367 13.8295 7.19523 14.0546C8.32678 14.2797 9.49967 14.1642 10.5656 13.7226C11.6315 13.2811 12.5425 12.5335 13.1835 11.5742C13.8245 10.6149 14.1666 9.48707 14.1666 8.33335C14.1648 6.78679 13.5497 5.30409 12.4561 4.21051C11.3625 3.11693 9.87981 2.50178 8.33325 2.50001Z" fill="white"/>
<path d="M5.83317 8.33335H4.1665C4.16783 7.22869 4.60724 6.16965 5.38835 5.38854C6.16947 4.60742 7.22851 4.16801 8.33317 4.16669V5.83335C7.67013 5.83335 7.03424 6.09675 6.5654 6.56559C6.09656 7.03443 5.83317 7.67031 5.83317 8.33335Z" fill="white"/>
<path d="M18.9225 17.7442L15.3758 14.1975C15.0197 14.6253 14.6253 15.0197 14.1975 15.3758L17.7442 18.9225C17.9013 19.0743 18.1118 19.1583 18.3303 19.1564C18.5488 19.1545 18.7579 19.0669 18.9124 18.9124C19.0669 18.7579 19.1545 18.5488 19.1564 18.3303C19.1583 18.1118 19.0743 17.9013 18.9225 17.7442Z" fill="white"/>
</g>
<defs>
<clipPath id="clip0_1032_18083">
<rect width="20" height="20" fill="white"/>
</clipPath>
</defs>
</svg>
